<svg width="56" height="56" viewBox="0 0 56 56" fill="none" xmlns="http://www.w3.org/2000/svg">
<path d="M0.5 28C0.5 12.8122 12.8122 0.5 28 0.5C43.1878 0.5 55.5 12.8122 55.5 28C55.5 43.1878 43.1878 55.5 28 55.5C12.8122 55.5 0.5 43.1878 0.5 28Z" fill="white"/>
<path d="M0.5 28C0.5 12.8122 12.8122 0.5 28 0.5C43.1878 0.5 55.5 12.8122 55.5 28C55.5 43.1878 43.1878 55.5 28 55.5C12.8122 55.5 0.5 43.1878 0.5 28Z" stroke="#E4E4E7"/>
<path d="M20 38V24H23V22C23 20.6167 23.4833 19.4417 24.45 18.475C25.4333 17.4917 26.6167 17 28 17C29.3833 17 30.5583 17.4917 31.525 18.475C32.5083 19.4417 33 20.6167 33 22V24H36V38H20ZM22 36H34V26H22V36ZM28 33C28.55 33 29.0167 32.8083 29.4 32.425C29.8 32.025 30 31.55 30 31C30 30.45 29.8 29.9833 29.4 29.6C29.0167 29.2 28.55 29 28 29C27.45 29 26.975 29.2 26.575 29.6C26.1917 29.9833 26 30.45 26 31C26 31.55 26.1917 32.025 26.575 32.425C26.975 32.8083 27.45 33 28 33ZM25 24H31V22C31 21.1667 30.7083 20.4583 30.125 19.875C29.5417 19.2917 28.8333 19 28 19C27.1667 19 26.4583 19.2917 25.875 19.875C25.2917 20.4583 25 21.1667 25 22V24ZM22 36V26V36Z" fill="#3F3F46"/>
</svg>
