<svg width="72" height="72" viewBox="0 0 120 120" fill="none" xmlns="http://www.w3.org/2000/svg">
<mask id="mask0_14_3494" style="mask-type:alpha" maskUnits="userSpaceOnUse" x="0" y="0" width="120" height="120">
<path d="M78.163 0H41.837C29.79 0 23.767 0 17.283 2.04999C10.203 4.62701 4.627 10.203 2.05 17.283C0 23.767 0 29.791 0 41.837V78.163C0 90.21 0 96.232 2.05 102.717C4.627 109.797 10.203 115.373 17.283 117.949C23.767 120 29.79 120 41.837 120H78.163C90.21 120 96.232 120 102.717 117.949C109.797 115.373 115.373 109.797 117.95 102.717C120 96.232 120 90.21 120 78.163V41.837C120 29.791 120 23.767 117.95 17.283C115.373 10.203 109.797 4.62701 102.717 2.04999C96.232 0 90.21 0 78.163 0Z" fill="#C4C4C4"/>
</mask>
<g mask="url(#mask0_14_3494)">
<g clip-path="url(#clip0_14_3494)">
<rect width="120" height="120" fill="black"/>
<ellipse cx="59.9464" cy="35.6924" rx="11.4524" ry="11.4524" fill="white"/>
<ellipse cx="37.4821" cy="37.4543" rx="8.36905" ry="8.36905" fill="white"/>
<ellipse cx="82.4107" cy="37.4543" rx="8.36905" ry="8.36905" fill="white"/>
<ellipse cx="22.2857" cy="44.2817" rx="5.28571" ry="5.28571" fill="white"/>
<ellipse cx="97.6071" cy="44.2817" rx="5.28571" ry="5.28571" fill="white"/>
<path d="M59.9464 66.9661C64.5685 66.9661 68.3155 63.2192 68.3155 58.5971C68.3155 53.975 64.5685 50.228 59.9464 50.228C55.3243 50.228 51.5774 53.975 51.5774 58.5971C51.5774 63.2192 55.3243 66.9661 59.9464 66.9661Z" fill="white"/>
<path d="M59.9464 84.5853C56.2974 84.5853 53.3392 81.6271 53.3392 77.9781C53.3392 74.3291 56.2974 71.371 59.9464 71.371C63.5954 71.371 66.5535 74.3291 66.5535 77.9781C66.5535 81.6271 63.5954 84.5853 59.9464 84.5853Z" fill="white"/>
<path d="M59.9464 98.2399C62.3791 98.2399 64.3512 96.2679 64.3512 93.8352C64.3512 91.4025 62.3791 89.4304 59.9464 89.4304C57.5137 89.4304 55.5416 91.4025 55.5416 93.8352C55.5416 96.2679 57.5137 98.2399 59.9464 98.2399Z" fill="white"/>
<rect width="152" height="152" transform="translate(-16 -17)" fill="black"/>
<circle cx="60" cy="36.5455" r="11.2273" fill="white"/>
<circle cx="37.9772" cy="38.2728" r="8.20455" fill="white"/>
<circle cx="82.0227" cy="38.2728" r="8.20455" fill="white"/>
<circle cx="23.0795" cy="44.966" r="5.18182" fill="white"/>
<circle cx="96.9205" cy="44.966" r="5.18182" fill="white"/>
<path d="M78.5681 76.2728C78.5681 78.6576 76.6348 80.591 74.2499 80.591C71.8651 80.591 69.9318 78.6576 69.9318 76.2728C69.9318 73.8879 71.8651 71.9546 74.2499 71.9546C76.6348 71.9546 78.5681 73.8879 78.5681 76.2728Z" fill="#2970FF"/>
<path d="M41.4318 76.2728C41.4318 78.6576 43.3651 80.591 45.7499 80.591C48.1348 80.591 50.0681 78.6576 50.0681 76.2728C50.0681 73.8879 48.1348 71.9546 45.7499 71.9546C43.3651 71.9546 41.4318 73.8879 41.4318 76.2728Z" fill="#2970FF"/>
<path d="M53.0909 89.6592C53.0909 91.3286 51.7375 92.6819 50.0681 92.6819C48.3987 92.6819 47.0454 91.3286 47.0454 89.6592C47.0454 87.9898 48.3987 86.6365 50.0681 86.6365C51.7375 86.6365 53.0909 87.9898 53.0909 89.6592Z" fill="#2970FF"/>
<path d="M72.9545 89.6592C72.9545 91.3286 71.6012 92.6819 69.9318 92.6819C68.2624 92.6819 66.9091 91.3286 66.9091 89.6592C66.9091 87.9898 68.2624 86.6365 69.9318 86.6365C71.6012 86.6365 72.9545 87.9898 72.9545 89.6592Z" fill="#2970FF"/>
<path fill-rule="evenodd" clip-rule="evenodd" d="M32.7954 76.7046C34.4648 76.7046 35.8182 75.3513 35.8182 73.6819C35.8182 72.0125 34.4648 70.6592 32.7954 70.6592C31.126 70.6592 29.7727 72.0125 29.7727 73.6819C29.7727 75.3513 31.126 76.7046 32.7954 76.7046Z" fill="#2970FF"/>
<path fill-rule="evenodd" clip-rule="evenodd" d="M87.2045 76.7046C88.8739 76.7046 90.2272 75.3513 90.2272 73.6819C90.2272 72.0125 88.8739 70.6592 87.2045 70.6592C85.5351 70.6592 84.1818 72.0125 84.1818 73.6819C84.1818 75.3513 85.5351 76.7046 87.2045 76.7046Z" fill="#2970FF"/>
<path d="M41.3169 86.1815C41.2135 86.1968 41.1076 86.2047 40.9999 86.2047C39.8075 86.2047 38.8408 85.238 38.8408 84.0456C38.8408 82.9655 39.6338 82.0707 40.6694 81.9116C40.7771 81.8951 40.8875 81.8865 40.9998 81.8865C42.1923 81.8865 43.1589 82.8531 43.1589 84.0456C43.1589 85.1303 42.359 86.0282 41.3169 86.1815Z" fill="#2970FF"/>
<path d="M79.3169 86.1815C79.2135 86.1968 79.1076 86.2047 78.9999 86.2047C77.8075 86.2047 76.8408 85.238 76.8408 84.0456C76.8408 82.9655 77.6338 82.0707 78.6694 81.9116C78.7771 81.8951 78.8875 81.8865 78.9998 81.8865C80.1923 81.8865 81.1589 82.8531 81.1589 84.0456C81.1589 85.1303 80.359 86.0282 79.3169 86.1815Z" fill="#2970FF"/>
<ellipse cx="93.4659" cy="60.2955" rx="4.31818" ry="4.31818" fill="#2970FF"/>
<ellipse cx="26.534" cy="60.2955" rx="4.31818" ry="4.31818" fill="#2970FF"/>
<path d="M47.909 59.4319C47.909 63.0092 45.009 65.9091 41.4317 65.9091C37.8544 65.9091 34.9545 63.0092 34.9545 59.4319C34.9545 55.8546 37.8544 52.9546 41.4317 52.9546C45.009 52.9546 47.909 55.8546 47.909 59.4319Z" fill="#2970FF"/>
<path d="M60 67.2046C64.5312 67.2046 68.2045 63.5313 68.2045 59.0001C68.2045 54.4688 64.5312 50.7955 60 50.7955C55.4687 50.7955 51.7954 54.4688 51.7954 59.0001C51.7954 63.5313 55.4687 67.2046 60 67.2046Z" fill="white"/>
<path d="M60 84.4774C56.4227 84.4774 53.5227 81.5774 53.5227 78.0001C53.5227 74.4228 56.4227 71.5228 60 71.5228C63.5773 71.5228 66.4772 74.4228 66.4772 78.0001C66.4772 81.5774 63.5773 84.4774 60 84.4774Z" fill="white"/>
<path d="M59.9999 97.8637C62.3848 97.8637 64.3181 95.9303 64.3181 93.5455C64.3181 91.1606 62.3848 89.2273 59.9999 89.2273C57.6151 89.2273 55.6818 91.1606 55.6818 93.5455C55.6818 95.9303 57.6151 97.8637 59.9999 97.8637Z" fill="white"/>
<path d="M85.0454 59.0001C85.0454 62.5774 82.1454 65.4774 78.5681 65.4774C74.9908 65.4774 72.0908 62.5774 72.0908 59.0001C72.0908 55.4228 74.9908 52.5228 78.5681 52.5228C82.1454 52.5228 85.0454 55.4228 85.0454 59.0001Z" fill="#2970FF"/>
</g>
</g>
<defs>
<clipPath id="clip0_14_3494">
<rect width="120" height="120" fill="white"/>
</clipPath>
</defs>
</svg>
